<svg xmlns="http://www.w3.org/2000/svg" width="150" height="150" viewBox="0 0 25 25" shape-rendering="crispEdges"><path fill="#ffffff" d="M0 0h25v25H0z"/><path stroke="#000000" d="M0 0.5h7m1 0h1m1 0h1m2 0h3m2 0h7M0 1.5h1m5 0h1m2 0h5m2 0h1m1 0h1m5 0h1M0 2.5h1m1 0h3m1 0h1m1 0h1m1 0h2m1 0h1m2 0h1m1 0h1m1 0h3m1 0h1M0 3.5h1m1 0h3m1 0h1m3 0h1m1 0h1m2 0h1m2 0h1m1 0h3m1 0h1M0 4.5h1m1 0h3m1 0h1m2 0h4m1 0h2m2 0h1m1 0h3m1 0h1M0 5.5h1m5 0h1m1 0h1m4 0h2m3 0h1m5 0h1M0 6.5h7m1 0h1m1 0h1m1 0h1m1 0h1m1 0h1m1 0h7M10 7.5h1m1 0h2m1 0h1M0 8.5h1m1 0h1m3 0h2m1 0h1m3 0h1m5 0h1m2 0h1m1 0h1M1 9.5h5m1 0h2m2 0h2m3 0h4m1 0h1m1 0h2M0 10.5h1m5 0h1m4 0h5m2 0h1m1 0h3m1 0h1M0 11.5h1m2 0h1m1 0h1m1 0h4m1 0h1m1 0h4m1 0h3M0 12.5h1m1 0h2m2 0h2m1 0h1m3 0h2m1 0h1m1 0h2m4 0h1M3 13.5h1m1 0h1m2 0h1m4 0h3m2 0h2m3 0h2M0 14.5h2m1 0h2m1 0h1m2 0h1m1 0h1m3 0h1m1 0h2m2 0h2m1 0h1M3 15.5h3m1 0h2m1 0h1m2 0h1m2 0h1m1 0h4M0 16.5h3m1 0h4m3 0h3m1 0h6m2 0h1M8 17.5h1m1 0h1m1 0h1m3 0h1m3 0h1m3 0h1M0 18.5h7m1 0h1m3 0h3m1 0h1m1 0h1m1 0h1m3 0h1M0 19.5h1m5 0h1m2 0h1m1 0h2m1 0h3m3 0h1m3 0h1M0 20.5h1m1 0h3m1 0h1m2 0h2m2 0h8m2 0h2M0 21.5h1m1 0h3m1 0h1m3 0h1m2 0h3m4 0h1m1 0h2M0 22.5h1m1 0h3m1 0h1m1 0h1m2 0h1m5 0h1m1 0h3m1 0h2M0 23.5h1m5 0h1m3 0h1m2 0h1m2 0h5M0 24.5h7m1 0h1m2 0h3m2 0h2m3 0h1m2 0h1"/></svg>
