<svg xmlns="http://www.w3.org/2000/svg" viewBox="0 0 890.41 233.54"><defs><style>.cls-1{fill:#e63946;}</style></defs><title>logo</title><g id="Layer_2" data-name="Layer 2"><g id="Layer_1-2" data-name="Layer 1"><path class="cls-1" d="M254.55,84.31a13.9,13.9,0,0,1,6.33-.3q2.72.6,3.31,5.12a231,231,0,0,1-19,30.15,168.78,168.78,0,0,1-23.51,25.63,82.75,82.75,0,0,1-13.12,9.49,53.45,53.45,0,0,1-15.07,6.18,31.15,31.15,0,0,1-15.23-.15q-7.53-2-13.26-9.8a27.13,27.13,0,0,1-6-14.32,60.66,60.66,0,0,1,.45-16.43,92.36,92.36,0,0,1,4.22-16.43q2.86-8,5.88-14.92a179.9,179.9,0,0,1,11.91-23.66q6.78-11.31,12.81-23.37-8.75,6.95-18.54,16.28a246,246,0,0,0-17,17.79q-9,10.56-17.19,21.25t-16,22.16q-6.94,9.95-11.76,17.79T105.32,150a64.68,64.68,0,0,1-6.18,8.14q-2.56,2.72-5,2.71a30.57,30.57,0,0,1-6.93-1.65,44.94,44.94,0,0,1-7.39-3.32,18.13,18.13,0,0,1-5.72-5,9.33,9.33,0,0,1-1.66-7.24c.2-.8.65-2.16,1.35-4.07s1.51-4,2.42-6.18,1.8-4.37,2.71-6.48,1.55-3.77,2-5Q89,103.92,98.23,85.21t20-39.79q-12.36,11.46-24,24.27T72.16,95.77q-6.94,8.45-13.42,16.88T45.93,129.83c-.81,1-2.11,2.82-3.92,5.43s-3.77,5.33-5.88,8.14S32,148.93,30,151.54A36.61,36.61,0,0,1,25.13,157C23.32,158.37,21,158.73,18,158A24.83,24.83,0,0,1,9.45,154,31.1,31.1,0,0,1,2.37,147C.46,144.41-.3,141.89.1,139.48a89.63,89.63,0,0,1,5.73-18.24q4.53-11,10.55-23.21T29.5,73.46Q36.58,61.1,43.21,50.55L61.6,20.4a14.75,14.75,0,0,1,8.45-6.78q5.72-2,12.66,3.16,6.93,5.43,8.74,8.74t-1.21,8.75q-3.31,6-8,13.41L72.91,62.45Q68.23,69.85,64,76.77T57.08,88.53q4.22-5.11,11.16-13.11T82.71,59.14q7.53-8.3,14.77-15.83a152.51,152.51,0,0,1,12.36-11.76,56.15,56.15,0,0,1,4.67-4.07q2.86-2.25,6.18-4.37a43.35,43.35,0,0,1,7.09-3.62,17.88,17.88,0,0,1,8-1.2,25,25,0,0,1,8.29,2.26,38,38,0,0,1,8,4.82,32.56,32.56,0,0,1,5.87,5.88q2.27,3,2,5.13a22.74,22.74,0,0,1-3,7.38A77.5,77.5,0,0,0,153,51.15l-7.23,14.77A195.32,195.32,0,0,1,187,27.63q11.74-8.13,19.29-9.34a25.07,25.07,0,0,1,15.07,2.41,42.27,42.27,0,0,1,12.36,8.14c3,3,4.32,5.23,3.92,6.63a23.72,23.72,0,0,1-2.11,6c-1,2-2,3.92-3,5.73l-13,24.42Q213.24,84,206.76,96.22a173.62,173.62,0,0,0-11,25.47q-3.31,9.34,2,12.51t17.94-3.76a71.11,71.11,0,0,0,21.55-18.85A189.86,189.86,0,0,0,254.55,84.31Z"/><path class="cls-1" d="M276.25,64.11a33.35,33.35,0,0,0,14,2.56A139.29,139.29,0,0,0,306,65.47q8-1.05,16.12-2.41a85.59,85.59,0,0,1,15.83-1.21,44.54,44.54,0,0,1,14.62,2.71,29,29,0,0,1,12.36,9.2,24.31,24.31,0,0,1,4.83,13.41,24.67,24.67,0,0,1-2.72,14A9.29,9.29,0,0,0,361.72,98a17.6,17.6,0,0,0-8.29-.15q-17.79,3.32-30.9,5.27a155.75,155.75,0,0,1-22.61,2q-9.5,0-15.83-2.86a25.66,25.66,0,0,1-10.85-9.8,17.85,17.85,0,0,1-2.57-6.63,29.54,29.54,0,0,1-.45-7.84A24.18,24.18,0,0,1,272,70.44,19.35,19.35,0,0,1,276.25,64.11Z"/><path class="cls-1" d="M350.41,135.26a329.68,329.68,0,0,0,33.16-45.37,298.57,298.57,0,0,0,25-52,24.83,24.83,0,0,1-3-13.86A29.57,29.57,0,0,1,409.05,12a16.49,16.49,0,0,1,7.38-7.24,8.76,8.76,0,0,1,9.05.91,8.94,8.94,0,0,1,4.22,9.49,54,54,0,0,1-3.32,12.21,9.76,9.76,0,0,0,5,1.21h5a63.52,63.52,0,0,0,14.47-2.72q4.21-6,7.84-8.29t8.74,2q12.06,9.36,13.72,17.64t-5.28,15.53q-11.46,14.78-22.31,31.65a169,169,0,0,0-16.28,31.35q-3.92,10.56-3.31,17t4.52,8.44q3.92,2,10.4-.45t14.32-9.35a148.51,148.51,0,0,0,18.39-20.5,184.14,184.14,0,0,0,16.88-26.53q4.21-2.41,6.78-.45a7.16,7.16,0,0,1,2.87,5.27q-8.15,15.38-16.73,28.34A159.76,159.76,0,0,1,471,142.19a70.43,70.43,0,0,1-19.6,14.32,53,53,0,0,1-19,5.28,31.06,31.06,0,0,1-16.28-3,27.35,27.35,0,0,1-11.46-10.7q-4.21-7.08-4.52-17.48T405,106.92a214.79,214.79,0,0,1,15.07-31.65,234.57,234.57,0,0,1,17.48-26.53,12.11,12.11,0,0,1-3.31-.3,53.77,53.77,0,0,1-6.94-1.36,55.31,55.31,0,0,1-8.44-2.87Q415.53,53,410.4,64.87T398.34,89.44q-5.73,10.85-11.6,19.89a92.87,92.87,0,0,1-11.91,15.08,46.11,46.11,0,0,1-12.21,9A18.87,18.87,0,0,1,350.41,135.26Z"/><path class="cls-1" d="M522.78,159.62a35.13,35.13,0,0,1-8,7.15,21.74,21.74,0,0,1-8,3.22,11.67,11.67,0,0,1-6.95-.86c-2.1-1-3.66-2.9-4.67-5.74q-3.37-8.31.3-20.66A56,56,0,0,1,507,121.38q7.74-9.07,15.92-10.61t11.72,6.85q3.2,8.22-.39,20.62A54.92,54.92,0,0,1,522.78,159.62Z"/><path class="cls-1" d="M719.4,83.71q-2.42-.9-6.63.6-5.13,9.34-11.15,18.69a134.63,134.63,0,0,1-13.27,17.34,95.34,95.34,0,0,1-15.52,13.86,49.08,49.08,0,0,1-17.34,8,112.79,112.79,0,0,0,12.21-15.82A191.77,191.77,0,0,0,677.5,109a302.9,302.9,0,0,0,12.66-28.34A67.56,67.56,0,0,0,695,51.75a60.14,60.14,0,0,0-2.11-13.41,20.17,20.17,0,0,0-7.24-10.71q-5.13-4.21-13.26-4.37a32.72,32.72,0,0,0-14.17,2.57,77.46,77.46,0,0,0-14.93,9.34,111.69,111.69,0,0,0-12.81,12.06l5.43-13.57q3-8.13.45-12a13.3,13.3,0,0,0-6.93-5.43A22.12,22.12,0,0,0,620.67,15q-4.36.31-5,1.21-9.35,22.6-20.05,44.16t-22.16,43q-9.65,18.7-19.74,37.08T534.6,177.77q-3.32,6.93-7.08,14.62a61.94,61.94,0,0,0-5.28,15.52,12.88,12.88,0,0,0,1.21,7.69,28.19,28.19,0,0,0,5.12,7.24,42.21,42.21,0,0,0,7.54,6.18,52.15,52.15,0,0,0,8.74,4.52A59.12,59.12,0,0,1,548,221.93q2.57-7.08,5.58-14t5.57-12.51q2.57-5.58,3.47-7.38l16.58-32.26,9.95-19.6a33.13,33.13,0,0,0,13.26,19.3A45.68,45.68,0,0,0,626,163.3a71.75,71.75,0,0,0,28.19-3.77,86.4,86.4,0,0,0,25.62-14.47,133.76,133.76,0,0,0,22.91-24,203,203,0,0,0,15.12-23.28h0q2.37-4.22,4.63-8.67C722,86.12,721,84.31,719.4,83.71ZM645.69,98.48a125,125,0,0,1-21.55,30.75q-5.43,6-9.95,7.24a9.48,9.48,0,0,1-7.84-.91,15.1,15.1,0,0,1-5.42-6.63,38.08,38.08,0,0,1-3-10.25l12.66-25.93,11.76-25.32c.6-.8,1.21-1.56,1.81-2.26s1.3-1.46,2.11-2.26q2.71-3,6.33-6.79a70.87,70.87,0,0,1,7.69-6.93,63.29,63.29,0,0,1,8.14-5.43,19.31,19.31,0,0,1,7.69-2.56,3.57,3.57,0,0,1,4.07,2.41,18,18,0,0,1,1.05,6.48,38.48,38.48,0,0,1-.75,7.54,52.56,52.56,0,0,1-1.36,5.58A186,186,0,0,1,645.69,98.48Z"/><path class="cls-1" d="M872.25,5q.9-6,4.82-4.82t7.39,6.33a38.41,38.41,0,0,1,5.27,13.11,25.69,25.69,0,0,1-1.2,15.53,314.58,314.58,0,0,1-16.28,33.61q-9.35,16.74-20.35,32.71t-23.06,31.36q-12.08,15.38-24.42,29.84-6.33,7.25-13,1.81Q782.11,157,780,151.24a24.32,24.32,0,0,1-1.81-10,153.28,153.28,0,0,1,5.58-36q5-17.92,10.09-35.42-6.63,9.94-12.81,19.9t-12.21,20.2q-5.13,8.75-9.64,17.33t-8.75,17.33q-1.51,3-3.16,6a28.87,28.87,0,0,0-2.56,6.33,14.71,14.71,0,0,1-1.81,4.23c-.61.8-2.11,1.3-4.53,1.5a16.13,16.13,0,0,1-5.27-1.35,43.18,43.18,0,0,1-14.32-9.5,17.76,17.76,0,0,1-4.52-6.93,18.57,18.57,0,0,1-.91-7.69,68.5,68.5,0,0,1,.91-7.69q.6-9.65,1.81-19.59t3-19.9q-5.13.3-6.33-5.73a192.92,192.92,0,0,0,9.34-18.09q4.23-9.34,8.45-18.09a209.76,209.76,0,0,0,9.49-22q3.16-9,7.69-11.46,2.71-1.5,7.08-.75a31.11,31.11,0,0,1,7.69,2.26,32.5,32.5,0,0,1,6.18,4.37,12.26,12.26,0,0,1,3.77,5.58,6.3,6.3,0,0,1-.3,4.22c-.6,1.61-1.11,3-1.51,4.22s-1.71,4.37-3.92,9.49S762,55.72,759,63.66s-5.83,17.24-8.74,27.89a335.82,335.82,0,0,0-7.38,34.36l8.14-15.37a556.68,556.68,0,0,1,45.82-72.05c1-1.21,2.41-2.91,4.22-5.13l5.43-6.63c1.81-2.21,3.41-4.12,4.82-5.73s2.21-2.51,2.41-2.71c1-.6,2.61-.8,4.83-.6a24.91,24.91,0,0,1,6.78,1.65,31.63,31.63,0,0,1,6.33,3.32c1.91,1.31,3,2.56,3.16,3.77a6.32,6.32,0,0,1,0,3.92,31.58,31.58,0,0,1-1.2,3.92c-.6,1.8-1.46,4.57-2.56,8.29s-2.32,7.94-3.62,12.66-2.62,9.7-3.92,14.92-2.46,10.25-3.47,15.07q-.9,4.53-2.41,11.76t-2.86,14.17q-1.37,6.94-3.47,16.88a193.65,193.65,0,0,0,17.49-24.72Q838.48,87.64,847.38,70t15.67-35.12Q869.83,17.4,872.25,5Z"/></g></g></svg>